<svg id="Layer_1" data-name="Layer 1" xmlns="http://www.w3.org/2000/svg" viewBox="0 0 46.08 177.29"><defs><style>.cls-1{fill:#111;}</style></defs><title>Artboard 1</title><path class="cls-1" d="M23.15,161.58a7.31,7.31,0,0,1,5.32,2.26,7.29,7.29,0,0,1,2.26,5.33,7,7,0,0,1-2.26,5.25,7.4,7.4,0,0,1-5.32,2.19,7.57,7.57,0,0,1-5.46-2.19,7.08,7.08,0,0,1-2.26-5.25,7.21,7.21,0,0,1,2.33-5.33A7.53,7.53,0,0,1,23.15,161.58Zm-3.76-76-1.86,60.89h0v.36h0c.14,4,2.52,6,5.45,6s5.41-2.53,5.41-6.51L26.91,85.49a1.42,1.42,0,0,0-1.44-1.55H20.83C19.39,83.94,19.39,85.54,19.39,85.54ZM22.84.5A16.1,16.1,0,0,0,10,8a15.56,15.56,0,0,0-7.1,7.47C.07,21.55.68,26.61,2.47,32.31,6.76,46,17.64,78.57,18.68,81.64a.71.71,0,0,0,.08.15h0l.11.16a1,1,0,0,0,.87.48h6.37a1,1,0,0,0,.59-.2,1,1,0,0,0,.59-.6c.14-.41.52-1.52,1.07-3.15,3.2-9.39,11.69-34.36,15.45-46.17,1.81-5.68,2.43-10.72-.44-16.88a15.62,15.62,0,0,0-6.55-7.18L36.68,8C33.35,3.06,28.31.32,22.84.5ZM4.32,31.73c-1.7-5.42-2.23-9.9.36-15.47A14.13,14.13,0,0,1,8,11.74c-2.22,5.09-1.9,9.47-.58,14.93L12.75,49c1.3,5.41,2.72,10.9,4.08,16.21,1.28,5,2.6,10.09,3.83,15.15h-.37C18.41,74.71,8.4,44.68,4.32,31.73ZM41.61,16.26c2.6,5.59,2,10.22.35,15.46C38.2,43.52,29.71,68.47,26.52,77.86c-.36,1.06-.64,1.89-.84,2.46h-.36c.46-1.74,1.39-5.24,2.59-9.72C31.29,57.91,37,36.67,39.7,26c1.29-5,1.12-9.27-.61-13.47A14.7,14.7,0,0,1,41.61,16.26ZM30.83,8.43a12.28,12.28,0,0,1,4.63,1.31c3.17,5,3.88,9.78,2.35,15.74C35.06,36.18,29.41,57.41,26,70.1c-.61,2.28-1.15,4.31-1.59,6L24,73c.88-5.9,2.08-13.4,3.24-20.76,1.64-10.3,3.18-20,3.57-23.43.65-5.7.86-10.49-2.78-15.94A14.58,14.58,0,0,0,25,9.5,11.69,11.69,0,0,1,30.83,8.43Zm-7.8,58c-.67-4.48-1.42-9.4-2.16-14.26-1.58-10.39-3.07-20.21-3.45-23.59-.63-5.47-.81-9.73,2.46-14.64a12.89,12.89,0,0,1,3.26-3.36,12.73,12.73,0,0,1,3.26,3.36c3.28,4.91,3.09,9.17,2.47,14.64-.39,3.34-1.93,13.06-3.56,23.35C24.53,56.85,23.73,61.86,23,66.41ZM21.31,9.5a14.54,14.54,0,0,0-3,3.34c-3.65,5.45-3.44,10.24-2.79,15.94C15.87,32.2,17.36,42,19,52.44,20.05,59.71,21.18,67.13,22,73c-.15,1-.3,2-.43,3-.95-3.78-1.92-7.55-2.87-11.25-1.37-5.3-2.78-10.79-4.08-16.18L9.26,26.22c-1.45-6-1.62-10.34,1.65-16l.43-.71a12.76,12.76,0,0,1,4.12-1.05A11.65,11.65,0,0,1,21.31,9.5Zm12-2.63A13.46,13.46,0,0,0,31,6.49a13.65,13.65,0,0,0-7.83,1.76,13.65,13.65,0,0,0-7.83-1.76,15.33,15.33,0,0,0-1.82.26,13.7,13.7,0,0,1,9.41-4.3A13.5,13.5,0,0,1,33.27,6.87Z"/></svg>