<svg id="Layer_1" data-name="Layer 1" xmlns="http://www.w3.org/2000/svg" viewBox="0 0 510.24 340.16"><defs><style>.cls-1{fill:#010101;}</style></defs><title>Artboard 1</title><path class="cls-1" d="M171.16,194.8c.62.63.62,1.9-.61,3.16-.62.95-4.94,5.38-13.89,5.06a17.93,17.93,0,0,1-12.36-6c-2.15-2.21-6.79-8.22-6.17-19.61.62-13,7.41-17.07,9.88-19a19.43,19.43,0,0,1,17.9-1c4.33,2.21,5.56,5.06,5.87,6,.93,2.21,0,3.48-1.23,4.11a3.11,3.11,0,0,1-4-1.58c-1.23-1.9-3.39-6.33-9.26-6-11.11,0-12.66,13.92-12.66,16.76,0,10.76,3.71,18,10.5,20.87,6.17,2.53,10.8-.94,13-2.21C169.31,194.8,170.24,193.85,171.16,194.8ZM223,176.46V197c0,3.8-3.39,4.43-4.93,5.06-1.86.63-4.33.63-7.42.63-9.87-.31-9.57-7.59-9.57-8.53a8.52,8.52,0,0,1,3.09-6.64c2.78-2.53,7.1-4.12,13.59-5.7a54.59,54.59,0,0,0-.31-7,4.05,4.05,0,0,0-4.94-3.16,3.75,3.75,0,0,0-3.4,1.89,10,10,0,0,0-1.54,3.16c-.31.95-2.47,2.85-4,.95-1.85-1.58-.61-5.06,2.17-6.95,4.63-3.49,10.49-2.54,12.35-1.9C222.11,170.13,223,174.24,223,176.46Zm-5.24,8.22c-.31,0-8,2.21-9.88,4.74-2.16,2.85-1.24,5.06-.62,6.65a5.56,5.56,0,0,0,5.87,3.16c2.77,0,4.32-.95,4.63-3.16ZM193.4,200.81c0,.31,0,1.26.92,1.26h3.4a.92.92,0,0,0,.93-.95V178.67a25.35,25.35,0,0,0-.62-4.43c-.93-1.9-2.48-6-9.26-6a12,12,0,0,0-9.27,4.11v-18a1.31,1.31,0,0,0-1.23-1.27h-3.4c-.31,0-.93.32-1.23,1.27v46.49c.3-.64,0,1.26,1.23,1.26h3.4a1.13,1.13,0,0,0,1.23-1.26v-25s3.4-3.49,7.1-3.49c3.71-.31,6.8,2.22,6.8,7C193.09,188.47,193.4,197.64,193.4,200.81Zm68.85-.63c0-.64-.62-1-1.54-1a11.09,11.09,0,0,1-2.47-.32c-3.09-.32-3.09-4.43-3.09-4.43V171.71h5.56a1.14,1.14,0,0,0,.92-.63V169.5c-.31-.63-.62-.63-.62-.63h-5.86v-8.23c0-.63-.31-1.58-1.24-.95a38.84,38.84,0,0,1-3.39,3.17,2.26,2.26,0,0,0-.93,1.89v4.12h-3.4c-.62,0-.62.31-.62.63v1.58c0,.32-.3.63.31.63h3.71v22.14a11.44,11.44,0,0,0,1.23,5.38c1.86,3.47,8,3.16,9.27,3.16C262.56,201.76,262.56,200.49,262.25,200.18Zm39.52-31H299a.83.83,0,0,0-.93.95c-.31.32-6.79,24-6.79,24l-7.11-24.67s0-.32-.61-.32h-.92c-.31,0-.62.64-.62.64l-6.79,24s-6.8-23.08-6.8-23.4c-.31-.63-.31-1.27-1.24-1.27h-4c-.61,0-.92.64-.61.95.31.64,9.88,31.63,9.88,31.63s0,.31.61.31h2.48a.68.68,0,0,0,.62-.63c.3-.32,6.48-20.87,6.48-20.87l6.17,20.87a.61.61,0,0,0,.62.63h2.77c.63,0,.63,0,.93-.63.31-1.27,9.26-31,9.26-31.31S302.69,169.18,301.77,169.18Zm44.77-16.13h-4c-.61,0-.61.64-.61,1.27v46.8a.91.91,0,0,0,.92.95h4s.61,0,.61-.95v-46.8S347.46,153.05,346.54,153.05Zm-10.19,48.07v-46.8s.3-1.27-.62-1.27h-4c-.62,0-.93.64-.62,1.27,0,1-.31,45.86-.31,46.8a.92.92,0,0,0,.93.95h4S336.35,202.07,336.35,201.12Zm-9.88-19.6-19.76,2.84s0,12.65,9.57,13.28c5.56,0,8.64-5,9-6,.62-1.58,1.24-1.9,2.17-1.58a2.33,2.33,0,0,1,.61,2.53c-.31.63-2.47,10.43-12.35,10.11-11.11-.31-13-10.11-13.58-15.17-.62-5.38.61-18,12-19.3S327.7,177.72,327.7,179C327.7,179.62,327.7,181.2,326.47,181.52ZM321.53,179s-.62-7.9-7.72-6.95c-6.48.63-7.1,9.17-7.1,9.17Zm40.14,2.85c-5.87-2.52-5.25-5.69-4.64-7.9A5,5,0,0,1,362,171.4c2.17.63,2.78,1.26,4.33,3.79,1.23,2.53,3.08,1.9,3.39,1.58.93-.31,1.86-1.58.93-3.48-2.47-5.69-9.88-5.06-9.88-5.06s-4,0-6.18,2.22a9.51,9.51,0,0,0-3.09,7.27c.31,6,6.8,8.22,10.5,10.12,4.94,2.53,5.56,5.69,4.64,7.91-.62,2.53-2.47,3.16-4.33,3.48-4.32,0-5.86-3.8-6.17-4.75a3.33,3.33,0,0,0-3.71-1.58,3.14,3.14,0,0,0-.93,4.11c.62,1.9,3.4,6,11.12,5.69s9.57-6,9.57-10.43C371.86,187.52,368.15,185,361.67,181.83Zm-117-10.12c0-.63,0-3.16-5.25-3.48a22.61,22.61,0,0,0-4.94.32c-2.16.31-4.63.95-5.86,1.9a3.79,3.79,0,0,0-1.55,3.48v27.51a.61.61,0,0,0,.62.63H232a.61.61,0,0,0,.62-.63s-.31-23.4,0-25.62c0-2.21.31-3.16,1.54-4.11a5.12,5.12,0,0,1,4.32.32c1.55.63,1.86,2.53,3.4,2.53C245,174.88,245,172,244.65,171.71Zm87.37-44c-2.46,3.17-13.58,12.66-33.34,16.45,1.16-.21,2.21-.45,3.3-.68-1.16.27-2.29.51-3.3.68-5.56,1-17.29,2.53-25.63-.95l10.19,17.08L343.14,129s-4.14-4.24-5.46-5.3c1.4-3.3.82-4.83.52-5.45-.62-3.8-4.32-6.64-9-8.22C341,116.37,334.8,124.59,332,127.75Zm-37-13.28c6.48-1.89,17-3.48,25.62-.32-.61-.31-8.33-5.37-26.24-1.26-12.66,3.16-26.56,11.7-21.62,20.24,5.25,9.17,31.19,6.32,42.3-.63-21,9.17-35.5,3.48-37.36-1.59C276.76,127.75,277.68,120.16,295,114.47Zm-32.11,12L257,116.68l54-18.34,9.57,8.86c-1.81-.3-3.58-.5-5.34-.64a56.13,56.13,0,0,0-13.18.64c-17.29,2.53-26.87,9.17-28.1,10.43-9,6-9.88,11.39-10.19,14.24a8.1,8.1,0,0,0,1.54,4.74,9,9,0,0,1-2.16-10.44c.12-.29.29-.57.43-.85C263.11,126,262.87,126.49,262.87,126.49Zm10.85-10.81a57.27,57.27,0,0,1,6.19-3.13l-.07,0A36.06,36.06,0,0,0,273.72,115.68ZM164.61,235.81h1.45V216.7h-1.45Zm20-2.55-11-16.56H172.1v19.11h1.44V219.2l11,16.61H186V216.7h-1.45ZM205.09,224c0,.69,0,1.35,0,2s0,1.34,0,2.08a16.18,16.18,0,0,1-.18,2.2,10.77,10.77,0,0,1-.55,2.08,5,5,0,0,1-1.11,1.72,6.45,6.45,0,0,1-4.77,1.74h-6.42V216.7h6.42a6.45,6.45,0,0,1,4.77,1.75,5.08,5.08,0,0,1,1.11,1.63,9.42,9.42,0,0,1,.55,1.9A13.18,13.18,0,0,1,205.09,224Zm-1.43,2c0-.54,0-1.1,0-1.7a15.06,15.06,0,0,0-.13-1.78,7.62,7.62,0,0,0-.42-1.66,3.9,3.9,0,0,0-.85-1.38,4.2,4.2,0,0,0-1.9-1.17,7.71,7.71,0,0,0-2.21-.31h-4.62v16.53h4.62a7.71,7.71,0,0,0,2.21-.31,4.26,4.26,0,0,0,1.9-1.16,3.83,3.83,0,0,0,.85-1.46,9.17,9.17,0,0,0,.42-1.86,18.25,18.25,0,0,0,.13-2C203.65,227.12,203.66,226.53,203.66,226Zm6.73,9.82H222v-1.29H211.84v-7.7h8.64v-1.29h-8.64V218H222V216.7h-11.6Zm28.52-15.94a6.42,6.42,0,0,1,0,4.67,5.13,5.13,0,0,1-1.21,1.73,5,5,0,0,1-1.82,1.07,6.89,6.89,0,0,1-2.3.37H228v8.1h-1.45V216.7h7a7.15,7.15,0,0,1,2.3.36,5,5,0,0,1,3,2.81Zm-1,2.33a3.86,3.86,0,0,0-1.24-3.17,4.94,4.94,0,0,0-3.24-1H228v8.43h5.39a5,5,0,0,0,3.24-1A3.91,3.91,0,0,0,237.9,222.2Zm5.75,13.61h11.59v-1.29H245.1v-7.7h8.64v-1.29H245.1V218h10.14V216.7H243.65Zm28.66-2.55-11-16.56h-1.45v19.11h1.45V219.2l11,16.61h1.45V216.7h-1.45ZM292.83,224c0,.69,0,1.35,0,2s0,1.34,0,2.08a14.74,14.74,0,0,1-.19,2.2,10.77,10.77,0,0,1-.55,2.08,4.92,4.92,0,0,1-1.1,1.72,6.47,6.47,0,0,1-4.78,1.74H279.8V216.7h6.41a6.48,6.48,0,0,1,4.78,1.75,5,5,0,0,1,1.1,1.63,9.42,9.42,0,0,1,.55,1.9A12,12,0,0,1,292.83,224Zm-1.44,2c0-.54,0-1.1,0-1.7a15.06,15.06,0,0,0-.13-1.78,9,9,0,0,0-.42-1.66,4.08,4.08,0,0,0-.86-1.38,4.22,4.22,0,0,0-1.89-1.17,7.78,7.78,0,0,0-2.22-.31h-4.61v16.53h4.61a7.78,7.78,0,0,0,2.22-.31,4.29,4.29,0,0,0,1.89-1.16,4,4,0,0,0,.86-1.46,10.75,10.75,0,0,0,.42-1.86,18.25,18.25,0,0,0,.13-2C291.39,227.12,291.39,226.53,291.39,226Zm6.74,9.82h11.59v-1.29H299.58v-7.7h8.64v-1.29h-8.64V218h10.14V216.7H298.13Zm28.66-2.55-11-16.56h-1.45v19.11h1.45V219.2l11,16.61h1.45V216.7h-1.45ZM332.13,218h5.69v17.82h1.45V218H345V216.7H332.13Z"/></svg>